<svg xmlns="http://www.w3.org/2000/svg" viewBox="0 0 100 100" preserveAspectRatio="xMidYMid" width="200" height="200" style="shape-rendering: auto; display: block; background: rgba(255, 255, 255, 0);" xmlns:xlink="http://www.w3.org/1999/xlink"><g><g transform="rotate(0 50 50)">
  <rect fill="#ffffff" height="11" width="6" ry="5.5" rx="3" y="24.5" x="47">
    <animate repeatCount="indefinite" begin="-1.3480392156862744s" dur="1.4705882352941175s" keyTimes="0;1" values="1;0" attributeName="opacity"></animate>
  </rect>
</g><g transform="rotate(30 50 50)">
  <rect fill="#ffffff" height="11" width="6" ry="5.5" rx="3" y="24.5" x="47">
    <animate repeatCount="indefinite" begin="-1.2254901960784315s" dur="1.4705882352941175s" keyTimes="0;1" values="1;0" attributeName="opacity"></animate>
  </rect>
</g><g transform="rotate(60 50 50)">
  <rect fill="#ffffff" height="11" width="6" ry="5.5" rx="3" y="24.5" x="47">
    <animate repeatCount="indefinite" begin="-1.1029411764705883s" dur="1.4705882352941175s" keyTimes="0;1" values="1;0" attributeName="opacity"></animate>
  </rect>
</g><g transform="rotate(90 50 50)">
  <rect fill="#ffffff" height="11" width="6" ry="5.5" rx="3" y="24.5" x="47">
    <animate repeatCount="indefinite" begin="-0.9803921568627451s" dur="1.4705882352941175s" keyTimes="0;1" values="1;0" attributeName="opacity"></animate>
  </rect>
</g><g transform="rotate(120 50 50)">
  <rect fill="#ffffff" height="11" width="6" ry="5.5" rx="3" y="24.5" x="47">
    <animate repeatCount="indefinite" begin="-0.8578431372549019s" dur="1.4705882352941175s" keyTimes="0;1" values="1;0" attributeName="opacity"></animate>
  </rect>
</g><g transform="rotate(150 50 50)">
  <rect fill="#ffffff" height="11" width="6" ry="5.5" rx="3" y="24.5" x="47">
    <animate repeatCount="indefinite" begin="-0.7352941176470588s" dur="1.4705882352941175s" keyTimes="0;1" values="1;0" attributeName="opacity"></animate>
  </rect>
</g><g transform="rotate(180 50 50)">
  <rect fill="#ffffff" height="11" width="6" ry="5.5" rx="3" y="24.5" x="47">
    <animate repeatCount="indefinite" begin="-0.6127450980392157s" dur="1.4705882352941175s" keyTimes="0;1" values="1;0" attributeName="opacity"></animate>
  </rect>
</g><g transform="rotate(210 50 50)">
  <rect fill="#ffffff" height="11" width="6" ry="5.5" rx="3" y="24.5" x="47">
    <animate repeatCount="indefinite" begin="-0.49019607843137253s" dur="1.4705882352941175s" keyTimes="0;1" values="1;0" attributeName="opacity"></animate>
  </rect>
</g><g transform="rotate(240 50 50)">
  <rect fill="#ffffff" height="11" width="6" ry="5.5" rx="3" y="24.5" x="47">
    <animate repeatCount="indefinite" begin="-0.3676470588235294s" dur="1.4705882352941175s" keyTimes="0;1" values="1;0" attributeName="opacity"></animate>
  </rect>
</g><g transform="rotate(270 50 50)">
  <rect fill="#ffffff" height="11" width="6" ry="5.5" rx="3" y="24.5" x="47">
    <animate repeatCount="indefinite" begin="-0.24509803921568626s" dur="1.4705882352941175s" keyTimes="0;1" values="1;0" attributeName="opacity"></animate>
  </rect>
</g><g transform="rotate(300 50 50)">
  <rect fill="#ffffff" height="11" width="6" ry="5.5" rx="3" y="24.5" x="47">
    <animate repeatCount="indefinite" begin="-0.12254901960784313s" dur="1.4705882352941175s" keyTimes="0;1" values="1;0" attributeName="opacity"></animate>
  </rect>
</g><g transform="rotate(330 50 50)">
  <rect fill="#ffffff" height="11" width="6" ry="5.5" rx="3" y="24.5" x="47">
    <animate repeatCount="indefinite" begin="0s" dur="1.4705882352941175s" keyTimes="0;1" values="1;0" attributeName="opacity"></animate>
  </rect>
</g><g></g></g><!-- [ldio] generated by https://loading.io --></svg>